<svg width="25" height="26" xmlns="http://www.w3.org/2000/svg"><g fill="#FFF" stroke="#FFF"><path d="M24.5 13c0-6.617-5.383-12-12-12S.5 6.383.5 13c0 3.1 1.171 6.018 3.3 8.258l-.004.007.22.22A11.92 11.92 0 0012.5 25a11.92 11.92 0 008.484-3.516l.22-.22-.004-.006A11.912 11.912 0 0024.5 13zm-12-11.143c6.144 0 11.143 4.999 11.143 11.143a11.06 11.06 0 01-2.87 7.464C19.131 17.734 15.952 16 12.5 16s-6.632 1.734-8.272 4.464A11.06 11.06 0 011.358 13c0-6.144 4.998-11.143 11.142-11.143zm-.546 22.273c-.06-.003-.119-.01-.178-.013-.122-.008-.243-.015-.364-.027-.07-.006-.14-.016-.21-.025-.108-.012-.217-.024-.325-.04-.076-.01-.151-.025-.226-.037-.102-.017-.203-.033-.304-.053-.078-.015-.155-.033-.233-.05-.097-.021-.193-.041-.29-.065-.079-.02-.157-.042-.236-.063-.093-.025-.186-.05-.278-.077-.08-.023-.157-.05-.235-.074-.091-.03-.182-.059-.272-.09-.079-.028-.156-.057-.233-.086-.089-.034-.177-.067-.265-.103-.077-.031-.154-.065-.23-.098a10.936 10.936 0 01-.258-.114l-.227-.11a11.293 11.293 0 01-.474-.247 10.751 10.751 0 01-1.982-1.401 10.51 10.51 0 01-.196-.177l-.088-.084c1.45-2.585 4.416-4.239 7.65-4.239s6.2 1.654 7.65 4.239l-.088.084a10.511 10.511 0 01-.61.526 11.31 11.31 0 01-1.324.913 10.752 10.752 0 01-.718.386c-.075.037-.15.074-.227.11-.085.04-.171.077-.258.114-.076.033-.153.067-.23.098-.088.036-.176.07-.265.103l-.232.086c-.09.031-.182.06-.273.09l-.235.074c-.092.028-.185.052-.278.077-.08.021-.157.044-.237.063-.096.024-.192.044-.289.065-.078.017-.155.035-.233.05-.1.02-.202.036-.304.053l-.225.038c-.108.015-.217.027-.326.04-.07.008-.14.018-.21.024a8.65 8.65 0 01-.364.027c-.06.004-.118.01-.178.013a11.444 11.444 0 01-1.092 0z"/><path d="M12.5 13.429a4.29 4.29 0 004.286-4.286A4.29 4.29 0 0012.5 4.857a4.29 4.29 0 00-4.286 4.286 4.29 4.29 0 004.286 4.286zm0-7.715a3.433 3.433 0 013.429 3.429A3.433 3.433 0 0112.5 12.57a3.433 3.433 0 01-3.429-3.428A3.433 3.433 0 0112.5 5.714z"/></g></svg>