<svg width="111" height="101" xmlns="http://www.w3.org/2000/svg"><path d="M96 0a15 15 0 0115 15 15.014 15.014 0 01-6.999 12.683L104 90.037A2.985 2.985 0 01101.07 93H44.73a18.516 18.516 0 01-1.188 1.543 1.24 1.24 0 01-1.788.137 1.245 1.245 0 01-.136-1.8c.17-.198.335-.399.495-.603A1.212 1.212 0 0142 91.76c0-.685.558-1.24 1.247-1.24h.061A15.97 15.97 0 0039.547 70h-.269C38.572 70 38 69.552 38 69l.007-.095a15.972 15.972 0 00-10.243-2.333A.927.927 0 0127 67a.887.887 0 01-.578-.22 15.971 15.971 0 00-12.507 12.356 15.968 15.968 0 0016.318 19.256c2.46-.106 4.858-.79 7.003-1.999a1.273 1.273 0 011.242 2.222A18.278 18.278 0 0130.407 101h-.92a18.502 18.502 0 01-15.32-8.148 1.187 1.187 0 01-.45.087V93H2.935A2.933 2.933 0 010 90.07V11.93A2.933 2.933 0 012.935 9h48.837a1.227 1.227 0 110 2.452H2.935a.428.428 0 00-.417.417L2.517 26h23.5c.085-.569.493-1 .983-1s.897.431.983 1h57.82a15.006 15.006 0 01-4.26-15H65.217C64.545 11 64 10.552 64 10s.545-1 1.217-1h17.035A15 15 0 0196 0zM25.306 73.002h1.683v2.285h-.847c-.73 0-1.083.522-1.083 1.458v3.173c0 1.544-.776 2.43-1.777 2.601 1.168.25 1.95 1.392 1.789 2.613v3.173c0 .924.352 1.458 1.082 1.458H27V92h-1.694c-1.764 0-2.789-1.216-2.789-3.197v-3.318c0-1.216-.47-1.836-1.376-1.836H21v-2.285h.117c.93 0 1.377-.644 1.377-1.847V76.2a2.883 2.883 0 01.685-2.276 2.687 2.687 0 012.127-.92zm8.497.917c.543.617.793 1.453.686 2.28v3.318c0 1.216.445 1.823 1.37 1.848H36v2.285h-.14c-.903 0-1.372.631-1.372 1.835v3.319c0 1.968-1.019 3.196-2.777 3.196H30v-2.237h.832c.738 0 1.09-.535 1.09-1.458v-3.173c-.129-1.195.636-2.297 1.77-2.552-.997-.12-1.77-1.057-1.77-2.6v-3.27c0-.937-.352-1.459-1.09-1.459H30v-2.248h1.676a2.673 2.673 0 012.127.916zm54.519-46.033l-.06.025a1.532 1.532 0 01-.52.089H27.999v10.74c.009.33-.093.651-.281.889A.921.921 0 0127 40c-.552 0-1-.548-1-1.224V28H2.517v62.07c0 .23.187.416.418.416h9.878A18.501 18.501 0 0126 64.334V45.2c0-.663.448-1.201 1-1.201s1 .538 1 1.2v18.86A18.498 18.498 0 0140.99 68h23.732c.706 0 1.278.448 1.278 1s-.572 1-1.278 1H43.139a18.496 18.496 0 013.032 20.52h54.899c.235 0 .43-.187.436-.421v-61.15A15.012 15.012 0 0196 30a15 15 0 01-7.678-2.114zM13.687 63c.725 0 1.313.448 1.313 1s-.588 1-1.313 1H7.313C6.588 65 6 64.552 6 64s.588-1 1.313-1h6.374zm75.034-4c.706 0 1.279.448 1.279 1s-.573 1-1.28 1H39.28c-.708 0-1.28-.448-1.28-1s.572-1 1.28-1h49.44zm-68.997-4c.705 0 1.276.448 1.276 1s-.571 1-1.276 1H7.276C6.571 57 6 56.552 6 56s.571-1 1.276-1h12.448zm-2.044-7c.729 0 1.32.448 1.32 1s-.591 1-1.32 1H7.32C6.591 50 6 49.552 6 49s.591-1 1.32-1h10.36zm39.094 0c.677 0 1.226.448 1.226 1s-.549 1-1.226 1H39.226C38.549 50 38 49.552 38 49s.549-1 1.226-1h17.548zm18.92 0c.72 0 1.306.448 1.306 1s-.585 1-1.307 1H64.308C63.585 50 63 49.552 63 49s.585-1 1.308-1h11.385zM13.69 40c.723 0 1.309.448 1.309 1s-.586 1-1.309 1H7.308C6.586 42 6 41.552 6 41s.586-1 1.308-1h6.383zm72.049-2c.696 0 1.26.448 1.26 1s-.564 1-1.26 1H40.26c-.697 0-1.26-.448-1.26-1s.563-1 1.26-1h45.48zm-66.016-5c.705 0 1.276.448 1.276 1s-.571 1-1.276 1H7.276C6.571 35 6 34.552 6 34s.571-1 1.276-1h12.448zM96 2.555a12.4 12.4 0 00-11.147 6.971A.848.848 0 0185 10c0 .407-.295.756-.72.913a12.398 12.398 0 0020.485 12.804A12.397 12.397 0 0096 2.555zm2.227 4.502c.55.178.88.855.74 1.521l-2.85 12.432c-.108.58-.54.99-1.035.98a1.084 1.084 0 01-.282 0c-.28-.08-.52-.298-.663-.6a1.487 1.487 0 01-.089-.996L96.9 7.962a1.26 1.26 0 01.5-.799.893.893 0 01.827-.106zM91.65 9.398c.45.531.45 1.391 0 1.922l-3.118 3.673 3.118 3.685v.001c.224.25.35.598.35.961 0 .364-.126.711-.35.962a1.05 1.05 0 01-.81.398 1.05 1.05 0 01-.822-.398l-3.5-4.137A2.226 2.226 0 0186 14.993a2.254 2.254 0 01.518-1.472l3.5-4.123c.45-.53 1.181-.53 1.632 0zm10.4.001l3.469 4.122c.32.392.494.92.48 1.466a2.252 2.252 0 01-.513 1.466l-3.47 4.122c-.22.267-.522.42-.838.423-.485.032-.932-.31-1.104-.848-.174-.537-.034-1.145.346-1.504l3.102-3.659-3.102-3.659c-.45-.533-.45-1.396 0-1.929.45-.532 1.18-.532 1.63 0zM12 15a2 2 0 110 4 2 2 0 010-4zm7 0a2 2 0 110 4 2 2 0 010-4zm8 0a2 2 0 11.001 3.998 2 2 0 010-3.998zm33.863-6C61.491 9 62 9.448 62 10s-.509 1-1.137 1h-2.726C57.509 11 57 10.552 57 10s.509-1 1.137-1h2.726z"/></svg>