<svg width="112" height="80" xmlns="http://www.w3.org/2000/svg"><path d="M17.978 11.561V.891h6.992v27.646h-6.992v-11.33H7.883v11.33H.892V.892h6.991v10.67h10.095m15.426 8.075c0 2.332 1.488 4.125 4.051 4.125 2.562 0 4.052-1.793 4.052-4.125 0-2.26-1.49-4.16-4.052-4.16-2.563 0-4.051 1.9-4.051 4.16zm14.752 0c0 6.24-4.987 9.792-10.7 9.792-5.68 0-10.703-3.515-10.703-9.792 0-6.276 4.989-9.827 10.702-9.827 5.714 0 10.701 3.55 10.701 9.827zm9.89-7.442h.07c1.216-2.268 3.301-3.277 5.768-3.277H65.1v6.304c-.869-.506-1.703-.613-2.675-.613-3.51 0-4.378 2.413-4.378 5.583v7.453h-6.324V9.17h6.324v3.025m11.005 15.45h6.365V10.18h-6.365v17.466zm6.75-24.173c0 1.907-1.61 3.474-3.568 3.474s-3.567-1.567-3.567-3.474C68.667 1.566 70.276 0 72.234 0c1.958 0 3.567 1.566 3.567 3.472zm1.783 16.147h32.996v-5.35H77.585v5.35zM18.754 51.195v4.987H0l8.691-11.957H1.155v-4.987h18.464l-8.654 11.957h7.789m7.515-3.912c0 2.331 1.489 4.124 4.051 4.124 2.563 0 4.052-1.793 4.052-4.124 0-2.26-1.489-4.16-4.052-4.16-2.562 0-4.051 1.9-4.051 4.16zm14.753 0c0 6.24-4.988 9.791-10.702 9.791-5.679 0-10.7-3.515-10.7-9.791 0-6.277 4.986-9.828 10.7-9.828 5.714 0 10.702 3.551 10.702 9.828zm9.275-6.003h.073c1.522-2.19 3.372-2.933 5.947-2.933 5.005 0 7 3.074 7 7.525v11.202h-6.602v-8.833c0-1.732.291-4.77-2.973-4.77-2.684 0-3.445 1.943-3.445 4.204v9.4h-6.6V38.947h6.6v2.332M74.84 57.074h-6.426V43.97H65.1v-5.415h3.313v-5.56h6.426v5.56h3.638v5.415h-3.638v13.104m10.978-9.791c0 2.331 1.474 4.124 4.014 4.124 2.537 0 4.013-1.793 4.013-4.124 0-2.26-1.476-4.16-4.013-4.16-2.54 0-4.014 1.9-4.014 4.16zm14.063 9.182h-6.242V54.42h-.07c-1.097 1.828-3.258 2.653-5.316 2.653-5.213 0-8.883-4.555-8.883-9.827s3.602-9.792 8.815-9.792c2.023 0 4.15.79 5.454 2.403v-1.793h6.242v18.4zm5.35.61h6.243v-29.43h-6.243v29.43zM3.844 67.944v8.748H6.51v-8.748h3.018v-2.488h-8.7v2.488h3.017zm6.807.578v8.17h2.632v-4.318c0-1.155.61-1.621 1.38-1.621.402 0 .675.128.835.24l.9-2.343c-.306-.192-.74-.353-1.333-.353-.995 0-1.605.578-1.894 1.06l-.37-.835h-2.15zm9.053 8.395c1.316 0 1.814-.562 2.022-.85l.338.625h2.15v-5.265c0-2.327-1.894-3.13-3.515-3.13-2.135 0-3.082.819-3.644 2.504l2.296.546c.128-.706.513-.995 1.22-.995.754 0 1.011.465 1.011 1.14v.015l-1.316.177c-2.954.385-3.307 1.734-3.307 2.665 0 1.814 1.557 2.568 2.745 2.568zm.786-2.055c-.674 0-1.027-.305-1.027-.69 0-.385.113-.754.915-.867l1.204-.176v.786c0 .514-.45.947-1.092.947zm6.502-7.24c.754 0 1.38-.61 1.38-1.364 0-.738-.626-1.364-1.38-1.364-.739 0-1.349.626-1.349 1.364 0 .755.61 1.365 1.349 1.365zm-1.285.9v8.17h2.633v-8.17h-2.633zm4.254 0v8.17h2.633v-4.318c0-1.155.465-1.621 1.284-1.621.77 0 1.252.45 1.252 1.637v4.302h2.633V72.15c0-2.633-.948-3.853-3.05-3.853-1.236 0-1.862.626-2.232 1.092l-.369-.867h-2.15zm10.707-.9c.754 0 1.38-.61 1.38-1.364 0-.738-.626-1.364-1.38-1.364-.738 0-1.348.626-1.348 1.364 0 .755.61 1.365 1.348 1.365zm-1.284.9v8.17h2.632v-8.17h-2.632zm4.254 0v8.17h2.632v-4.318c0-1.155.466-1.621 1.284-1.621.77 0 1.252.45 1.252 1.637v4.302h2.633V72.15c0-2.633-.947-3.853-3.05-3.853-1.236 0-1.862.626-2.231 1.092l-.37-.867h-2.15zM56.977 80c2.376 0 4.382-1.172 4.382-3.933v-7.544h-2.15l-.482.802c-.177-.353-.915-1.027-2.12-1.027-2.022 0-3.884 1.477-3.884 4.093 0 2.649 1.894 4.094 3.885 4.094 1.091 0 1.862-.482 2.119-.931v.545c0 1.22-.82 1.686-1.75 1.686-.883 0-1.365-.418-1.477-.995l-2.44.53c.401 1.508 1.654 2.68 3.917 2.68zm.048-5.891c-.931 0-1.67-.61-1.67-1.718 0-1.107.755-1.717 1.67-1.717.947 0 1.702.61 1.702 1.717 0 1.108-.755 1.718-1.702 1.718zM67.7 65.457v11.236h2.664V72.97h1.959c1.62 0 3.708-1.011 3.708-3.772 0-2.89-2.12-3.74-3.885-3.74H67.7zm4.253 5.104h-1.589v-2.696h1.573c1.204 0 1.429.882 1.429 1.332 0 .465-.177 1.364-1.413 1.364zm9.262 6.357c2.248 0 4.302-1.637 4.302-4.302 0-2.665-2.054-4.318-4.302-4.318-2.247 0-4.301 1.653-4.301 4.318 0 2.665 2.054 4.302 4.301 4.302zm0-2.456c-.93 0-1.669-.722-1.669-1.846s.738-1.862 1.67-1.862c.898 0 1.669.738 1.669 1.862s-.77 1.846-1.67 1.846zm5.587-5.94v8.171h2.632v-4.318c0-1.155.61-1.621 1.38-1.621.402 0 .675.128.835.24l.9-2.343c-.306-.192-.74-.353-1.333-.353-.995 0-1.605.578-1.894 1.06l-.37-.835h-2.15zm10.048 8.396c1.3 0 1.99-.514 2.28-.803l-.996-1.894c-.144.129-.32.241-.658.241-.385 0-.578-.24-.578-.674v-2.97h1.798v-2.295h-1.798v-2.12h-2.632v2.12H92.95v2.295h1.316v3.403c0 1.83 1.252 2.697 2.584 2.697zm5.586 0c1.317 0 1.814-.562 2.023-.85l.337.625h2.151v-5.265c0-2.327-1.894-3.13-3.515-3.13-2.135 0-3.082.819-3.644 2.504l2.295.546c.129-.706.514-.995 1.22-.995.755 0 1.011.465 1.011 1.14v.015l-1.316.177c-2.953.385-3.307 1.734-3.307 2.665 0 1.814 1.557 2.568 2.745 2.568zm.787-2.055c-.674 0-1.027-.305-1.027-.69 0-.385.112-.754.915-.867l1.203-.176v.786c0 .514-.449.947-1.091.947zm5.2-9.406v11.236h2.633V65.457h-2.632z" fill="#FFF" fill-rule="evenodd"/></svg>