<svg width="101" height="81" xmlns="http://www.w3.org/2000/svg"><path d="M75.859 36c12.118 0 21.97 10.09 21.97 22.5 0 4.176-1.132 8.235-3.17 11.715a17.288 17.288 0 004.923 5.185l.4.267c.567.347.906 1.042 1.018 1.738 0 .696-.453 1.276-1.133 1.508-1.02.464-2.038.696-3.17.928-3.852.695-7.702.347-11.213-1.044C82.54 80.188 79.254 81 75.971 81 64.08 81 54.227 71.141 54 58.963c0-1.044.793-1.856 1.812-1.856 1.02 0 1.813.812 1.813 1.856.112 10.207 8.38 18.442 18.347 18.442 3.058 0 5.889-.812 8.607-2.203.453-.348 1.132-.348 1.585-.116 2.831 1.276 6.002 1.74 9.06 1.276-1.698-1.508-3.057-3.364-4.076-5.335-.34-.696-.227-1.393.113-1.972 2.038-3.132 3.17-6.727 3.17-10.554 0-10.439-8.266-18.906-18.46-18.906-.905 0-1.698.117-2.717.233-1.02.231-1.926-.464-2.039-1.508-.226-1.044.453-1.972 1.473-2.088 1.132-.116 2.151-.232 3.17-.232zM77 55v13h-3V55h3zM41.397 0C57.702 0 71 13.254 71 29.504c0 16.087-13.034 29.238-29.115 29.5l-.488.003h-6.013C30.18 62.926 24.05 65 17.46 65a33.99 33.99 0 01-4.74-.346 1.883 1.883 0 01-1.504-1.267c-.232-.692 0-1.384.462-1.845a26.764 26.764 0 004.626-5.647C6.359 50.825 0 40.682 0 29.504 0 13.416 13.033.265 29.115.004L29.603 0h11.794zm0 3.687H29.603C15.379 3.687 3.7 15.212 3.7 29.503c0 10.488 6.244 19.824 15.841 23.741.463.231.81.577 1.041 1.038.116.46.116 1.037-.115 1.498-.925 1.96-2.198 3.804-3.585 5.532 6.13.115 11.91-1.843 16.652-5.647.297-.198.595-.31.965-.339l.191-.007h6.707c14.34 0 25.903-11.525 25.903-25.816 0-14.176-11.564-25.816-25.903-25.816zM75.5 50c.428 0 .75.107 1.072.428.321.322.428.75.428 1.072 0 .428-.107.75-.428 1.072-.215.321-.644.428-1.072.428-.428 0-.75-.107-1.072-.428-.321-.215-.428-.644-.428-1.072 0-.428.107-.75.428-1.072.215-.321.644-.428 1.072-.428zM35.438 38c.86 0 1.72.382 2.456 1.018.737.636 1.106 1.4 1.106 2.418 0 1.019-.245 1.91-.982 2.546-.615.636-1.474 1.018-2.456 1.018-.86 0-1.72-.382-2.456-1.018-.737-.636-1.106-1.4-1.106-2.418 0-1.019.245-1.782.982-2.546.615-.636 1.474-1.018 2.456-1.018zm.018-24c2.538 0 4.613.681 6.227 2.043 1.615 1.363 2.422 3.292 2.306 5.675 0 1.703-.461 3.065-1.383 4.2-.577.681-.923 1.249-1.269 1.476l-1.153 1.135c-.576.454-.922.795-1.268 1.136l-.807.794c-.577.568-.808 1.476-.808 2.611V35h-4.843v-2.611c0-1.135.23-1.93.461-2.497.346-.567.923-1.249 1.846-2.157l3.113-3.064c.692-.681 1.038-1.59 1.038-2.611 0-1.135-.346-1.93-1.038-2.612-.692-.681-1.5-1.022-2.653-1.022s-2.075.34-2.768 1.022c-.692.568-1.153 1.476-1.268 2.611H26c.23-2.497 1.27-4.427 2.999-5.903 1.73-1.475 3.92-2.156 6.457-2.156z"/></svg>