<svg width="91" height="91" xmlns="http://www.w3.org/2000/svg"><path d="M85.313 0C88.44 0 91 2.56 91 5.688v79.624C91 88.442 88.44 91 85.312 91H5.689C2.558 91 0 88.44 0 85.312V5.689C0 2.558 2.56 0 5.688 0zm2.843 11.375H2.844v73.938a2.846 2.846 0 002.844 2.843h79.624a2.846 2.846 0 002.844-2.844V11.376zm-22 46.406c.345-.714 1.157-.989 1.815-.612l5.31 3.038c.443.253.719.75.719 1.293 0 .542-.276 1.04-.719 1.293l-5.31 3.039a1.254 1.254 0 01-.625.168c-.483 0-.95-.283-1.19-.782-.347-.714-.095-1.597.562-1.973L69.77 61.5l-3.052-1.746c-.656-.376-.908-1.26-.563-1.973zM61.545 60c.803 0 1.454.672 1.454 1.5s-.651 1.5-1.455 1.5h-1.09C59.65 63 59 62.328 59 61.5s.651-1.5 1.455-1.5zm-7.927 0c.763 0 1.381.672 1.381 1.5s-.618 1.5-1.38 1.5h-2.24c-.762 0-1.38-.672-1.38-1.5s.618-1.5 1.38-1.5zm-8 0c.763 0 1.381.672 1.381 1.5s-.618 1.5-1.38 1.5h-2.24c-.762 0-1.38-.672-1.38-1.5s.618-1.5 1.38-1.5zm-9 0c.763 0 1.381.672 1.381 1.5s-.618 1.5-1.38 1.5h-2.24c-.762 0-1.38-.672-1.38-1.5s.618-1.5 1.38-1.5zm-8 0c.763 0 1.381.672 1.381 1.5s-.618 1.5-1.38 1.5h-2.24c-.762 0-1.38-.672-1.38-1.5s.618-1.5 1.38-1.5zm-8.074 0c.804 0 1.455.672 1.455 1.5s-.651 1.5-1.455 1.5h-1.09C18.65 63 18 62.328 18 61.5s.651-1.5 1.455-1.5zm53-9c.804 0 1.455.672 1.455 1.5s-.651 1.5-1.455 1.5h-1.09C71.65 54 71 53.328 71 52.5s.651-1.5 1.455-1.5zM27.57 51c.79 0 1.429.672 1.429 1.5s-.64 1.5-1.429 1.5h-2.14c-.79 0-1.429-.672-1.429-1.5s.64-1.5 1.429-1.5zm31 0c.79 0 1.429.672 1.429 1.5s-.64 1.5-1.429 1.5h-2.14c-.79 0-1.429-.672-1.429-1.5s.64-1.5 1.429-1.5zm-16 0c.79 0 1.429.672 1.429 1.5s-.64 1.5-1.429 1.5h-2.14c-.79 0-1.429-.672-1.429-1.5s.64-1.5 1.429-1.5zm24 0c.79 0 1.429.672 1.429 1.5s-.64 1.5-1.428 1.5h-2.144C63.64 54 63 53.328 63 52.5s.64-1.5 1.428-1.5zm-16 0c.79 0 1.429.672 1.429 1.5S51.36 54 50.57 54h-2.14c-.79 0-1.429-.672-1.429-1.5s.64-1.5 1.429-1.5zm-15 0c.79 0 1.429.672 1.429 1.5s-.64 1.5-1.429 1.5h-2.14c-.79 0-1.429-.672-1.429-1.5s.64-1.5 1.429-1.5zm-16.026 0c.804 0 1.455.672 1.455 1.5s-.651 1.5-1.455 1.5h-1.09C17.65 54 17 53.328 17 52.5s.651-1.5 1.455-1.5zm54-9c.804 0 1.455.672 1.455 1.5s-.651 1.5-1.455 1.5h-1.09C71.65 45 71 44.328 71 43.5s.651-1.5 1.455-1.5zM58.57 42c.79 0 1.429.672 1.429 1.5s-.64 1.5-1.429 1.5h-2.14c-.79 0-1.429-.672-1.429-1.5s.64-1.5 1.429-1.5zm-16 0c.79 0 1.429.672 1.429 1.5s-.64 1.5-1.429 1.5h-2.14c-.79 0-1.429-.672-1.429-1.5s.64-1.5 1.429-1.5zm-7 0c.79 0 1.429.672 1.429 1.5s-.64 1.5-1.429 1.5h-2.14c-.79 0-1.429-.672-1.429-1.5s.64-1.5 1.429-1.5zm-8 0c.79 0 1.429.672 1.429 1.5s-.64 1.5-1.429 1.5h-2.14c-.79 0-1.429-.672-1.429-1.5s.64-1.5 1.429-1.5zm39 0c.79 0 1.429.672 1.429 1.5s-.64 1.5-1.428 1.5h-2.144C63.64 45 63 44.328 63 43.5s.64-1.5 1.428-1.5zm-16 0c.79 0 1.429.672 1.429 1.5s-.64 1.5-1.429 1.5h-2.14c-.79 0-1.429-.672-1.429-1.5s.64-1.5 1.429-1.5zm-31.026 0c.804 0 1.455.672 1.455 1.5s-.651 1.5-1.455 1.5h-1.09C17.65 45 17 44.328 17 43.5s.651-1.5 1.455-1.5zm3.506-14.835c.654-.373 1.459-.093 1.798.623.34.716.085 1.598-.567 1.97l-3.058 1.743 3.058 1.742c.652.373.907 1.254.567 1.97-.237.5-.702.787-1.184.787-.207 0-.417-.053-.614-.165l-5.333-3.038c-.441-.252-.718-.752-.718-1.297 0-.545.277-1.045.718-1.296zm43.1.623c.34-.716 1.143-.996 1.798-.623l5.333 3.039c.441.251.718.75.718 1.296 0 .545-.276 1.045-.718 1.296l-5.333 3.039a1.231 1.231 0 01-.614.165c-.482 0-.947-.286-1.184-.787-.34-.716-.085-1.598.567-1.97l3.058-1.742-3.058-1.742c-.652-.373-.907-1.255-.567-1.971zM28.98 34a.986.986 0 011.018 1.04.998.998 0 01-.994.96.99.99 0 01-1.003-1.063.978.978 0 01.978-.937zm8.564-4c.804 0 1.455.672 1.455 1.5s-.651 1.5-1.455 1.5h-1.09C35.65 33 35 32.328 35 31.5s.651-1.5 1.455-1.5zm8.094 0c.752 0 1.361.672 1.361 1.5s-.61 1.5-1.36 1.5h-2.28c-.75 0-1.36-.672-1.36-1.5s.61-1.5 1.36-1.5zm9 0c.752 0 1.361.672 1.361 1.5s-.61 1.5-1.36 1.5h-2.28c-.75 0-1.36-.672-1.36-1.5s.61-1.5 1.36-1.5zm6.906 0c.804 0 1.455.672 1.455 1.5s-.651 1.5-1.455 1.5h-1.09C59.65 33 59 32.328 59 31.5s.651-1.5 1.455-1.5zm-32.078-3c.817-.016 1.451.474 1.524 1.118.006.056.009.111.009.167.003.334-.087.667-.128.997-.09.716-.19 1.433-.285 2.148l-.19 1.433c-.015.128-.025.136-.193.136h-1.436c-.169 0-.18-.009-.195-.135-.08-.612-.573-4.745-.573-4.745.068-.632.663-1.101 1.467-1.119zM85.313 2.844H5.686a2.846 2.846 0 00-2.843 2.844V8.53h85.312V5.687a2.846 2.846 0 00-2.844-2.843zM82.5 4a1.5 1.5 0 110 3 1.5 1.5 0 010-3zm-6 0a1.5 1.5 0 110 3 1.5 1.5 0 010-3z"/></svg>