<svg width="37" height="37" xmlns="http://www.w3.org/2000/svg"><path d="M24.281 0c.639 0 1.157.518 1.157 1.156v1.157h6.937A4.625 4.625 0 0137 6.936v25.438A4.625 4.625 0 0132.375 37H4.625A4.625 4.625 0 010 32.375V6.937a4.625 4.625 0 014.625-4.625h6.938V1.157a1.156 1.156 0 012.312 0v1.157h9.25V1.155c0-.638.518-1.156 1.156-1.156zm10.407 13.875H2.312v18.5a2.313 2.313 0 002.313 2.313h27.75a2.313 2.313 0 002.313-2.313v-18.5zM28.905 27.75a1.156 1.156 0 110 2.313 1.156 1.156 0 010-2.313zm-6.937 0a1.156 1.156 0 110 2.313 1.156 1.156 0 010-2.313zm-6.938 0a1.156 1.156 0 110 2.313 1.156 1.156 0 010-2.313zm-6.937 0a1.156 1.156 0 110 2.313 1.156 1.156 0 010-2.313zm20.812-4.625a1.156 1.156 0 110 2.313 1.156 1.156 0 010-2.313zm-6.937 0a1.156 1.156 0 110 2.313 1.156 1.156 0 010-2.313zm-6.938 0a1.156 1.156 0 110 2.313 1.156 1.156 0 010-2.313zm-6.937 0a1.156 1.156 0 110 2.313 1.156 1.156 0 010-2.313zM28.906 18.5a1.156 1.156 0 110 2.313 1.156 1.156 0 010-2.313zm-6.937 0a1.156 1.156 0 110 2.313 1.156 1.156 0 010-2.313zm-6.938 0a1.156 1.156 0 110 2.313 1.156 1.156 0 010-2.313zm-6.937 0a1.156 1.156 0 110 2.313 1.156 1.156 0 010-2.313zm3.469-13.875H4.625a2.313 2.313 0 00-2.313 2.313v4.625h32.376V6.936a2.313 2.313 0 00-2.313-2.312h-6.938V5.78a1.156 1.156 0 01-2.312 0V4.625h-9.25v1.156a1.156 1.156 0 01-2.313 0V4.625z"/></svg>