<svg width="85" height="99" xmlns="http://www.w3.org/2000/svg"><path d="M59.757 0c4.733 0 8.48 3.763 8.48 8.517v34.86C77.703 45.162 85 53.48 85 63.581c0 8.32-4.93 15.648-12.03 18.817l2.564 12.28c.197.99-.198 2.179-.79 2.971-1.182 1.188-2.76 1.584-4.338.99l-6.113-2.773-5.917 2.773c-1.577.793-3.353.198-4.338-.99-1.578-1.98-.395-3.96-.198-5.545H8.283C3.747 92.102 0 88.339 0 83.783V8.517C0 3.763 3.747 0 8.48 0zm9.268 83.785c-1.38.396-2.958.396-4.142.396-1.774.198-3.55-.198-4.93-.396L57.39 94.877l6.114-2.773c.395-.199.986-.199 1.578 0l6.31 2.773zM59.56 3.963H8.283c-2.366 0-4.339 1.981-4.339 4.556h-.197v75.266c0 2.575 1.973 4.556 4.536 4.556h46.543l1.38-5.744c-20.115-8.915-13.804-39.218 7.89-39.416V8.519c0-2.575-1.973-4.556-4.537-4.556zm4.93 43.18c-9.071 0-16.565 7.526-16.565 16.637 0 9.309 7.494 16.637 16.566 16.637 9.071 0 16.369-7.526 16.369-16.637s-7.298-16.638-16.37-16.638zM64 52c6.6 0 12 5.4 12 12s-5.4 12-12 12-12-5.4-12-12 5.4-12 12-12zm-.2 4c-4.4 0-8 3.6-8 8s3.6 8 8 8 8-3.6 8-8-3.6-8-8-8zM51 38c1.2 0 2 1 2 2.5s-.8 2.5-2 2.5H11c-1 0-2-1-2-2.5s.8-2.5 2-2.5zm0-12c1.2 0 2 1 2 2.5s-.8 2.5-2 2.5H11c-1 0-2-1-2-2.5s.8-2.5 2-2.5zm0-13c1.2 0 2 1 2 2.5s-.8 2.5-2 2.5H11c-1 0-2-1-2-2.5s.8-2.5 2-2.5z"/></svg>