<svg width="112" height="114" xmlns="http://www.w3.org/2000/svg"><path d="M102.055 70c1.36 0 2.21 1.183 1.87 2.534-5.609 17.912-20.566 31.43-39.26 35.147-.17 0-.341.338-.341.507v5.408c0 .338-.34.506-.68.338l-9.517-7.265a.512.512 0 010-.676l9.518-7.265c.34-.169.679 0 .679.338v4.225c0 .166.17.504.51.335 16.826-3.717 30.253-16.052 35.352-32.274.17-.845 1.02-1.352 1.87-1.352zm-94.22-6.746l6.846 8.631c.342.508 0 1.015-.514 1.015H10.06c-.343 0-.514.34-.343.508 5.477 15.231 18.483 26.909 34.742 30.632.857.34 1.541 1.186 1.541 2.032 0 1.185-1.199 2.2-2.396 1.862-17.97-4.062-32.517-17.432-37.994-34.525 0-.169-.17-.339-.342-.339H.818c-.684-.001-1.026-.678-.684-1.185l6.675-8.63c.342-.34.856-.34 1.027 0zM56.498 31a1.61 1.61 0 011.432.857l6.814 12.817 13.895 2.291a1.62 1.62 0 01.91 2.72v.001L69.505 60.139l2.105 13.998A1.611 1.611 0 0170.111 76c-.27.013-.54-.043-.784-.162l-13.02-6.354-12.611 6.336a1.608 1.608 0 01-1.66-.13 1.62 1.62 0 01-.66-1.534l2.016-14.41-9.917-10.041a1.622 1.622 0 01-.401-1.63 1.615 1.615 0 011.258-1.11L48.6 44.442l6.474-12.566A1.612 1.612 0 0156.497 31zm.02 5L51.12 46.396c-.23.436-.648.742-1.136.83L38 49.343l8.274 8.314c.35.354.514.85.444 1.341l-1.67 11.985 10.511-5.26a1.61 1.61 0 011.42 0L67.917 71l-1.775-11.56a1.588 1.588 0 01.426-1.342L75 49.397 63.406 47.49a1.603 1.603 0 01-1.153-.811L56.517 36zm9.854-28.933c20.664 4.768 36.755 21.97 39.634 43.431 0 .17.17.17.34.17h5.25c.339 0 .508.341.339.51l-7.283 9.539c-.34.342-.678.342-.848.17L96.35 51.35c-.17-.17 0-.51.339-.51h5.081c.17 0 .34-.17.34-.342-2.88-19.586-17.615-35.256-36.586-39.684C64.677 10.644 64 9.792 64 8.94c0-1.193 1.186-2.214 2.371-1.873zm-22.889-7l9.39 7.199c.17.17.17.514 0 .685l-9.39 7.369c-.341.17-.682 0-.682-.343v-3.94c0-.172-.17-.514-.512-.343C23.85 15.493 9.68 31.09 6.778 50.286 6.608 51.314 5.924 52 4.9 52c-1.196 0-2.049-1.028-1.878-2.228C6.094 28.518 21.972 11.55 42.458 6.58c.17 0 .342-.17.342-.343V.41c0-.343.342-.514.682-.343z"/></svg>