<svg width="121" height="90" xmlns="http://www.w3.org/2000/svg"><path d="M111.507 11.947l-.69-.248c-.43-.155-10.513-3.726-24.509-4.025V0h-1.041c-13.6 0-22.692 8.48-25.255 11.192C57.071 8.186 47.797 0 34.874 0h-1.042v7.671c-8.667.014-16.904 1.36-24.5 4.025l-.695.245v4.529L0 16.469V90h120.128V16.469h-8.623l.002-4.522zM86.309 69.361V56.663c8.12.245 14.071 2.345 14.132 2.37l.707-1.96c-.264-.095-6.348-2.251-14.84-2.493V44.166c8.12.245 14.07 2.345 14.131 2.368l.707-1.96c-.264-.095-6.348-2.25-14.84-2.491V31.667c8.12.245 14.07 2.346 14.131 2.37l.707-1.96c-.264-.095-6.348-2.251-14.84-2.493V9.755c11.596.259 20.62 2.875 23.115 3.674v65.1c-5.289-1.603-24.817-6.633-45.465-.882 3.93-3.336 11.416-8.287 21.31-8.287l1.046.002v-.001zM61.112 13.073C62.569 11.465 71.207 2.56 84.225 2.1v65.193c-11.52.369-19.657 6.768-23.113 10.072V13.073zM35.915 8.701v-6.6c12.76.473 21.71 9.492 23.114 10.995v64.306c-3.448-3.276-11.653-9.734-23.114-10.108V8.7zm-25.195 4.72c7.18-2.43 14.964-3.654 23.115-3.668V29.57c-5.26.056-10.247.89-14.842 2.504l.69 1.965c4.372-1.537 9.157-2.332 14.152-2.387v10.416c-5.276.061-10.248.89-14.842 2.503l.69 1.965c4.374-1.537 9.12-2.332 14.151-2.387v10.419c-5.259.07-10.246.887-14.841 2.5l.69 1.966c4.372-1.537 9.156-2.315 14.151-2.384v12.708h1.042c10.075 0 17.586 5.056 21.445 8.39-7.961-2.084-26.417-5.517-45.6.754V13.42zm107.326 5.13v69.365H2.083V18.55h6.55v62.875l1.388-.488c23.893-8.39 46.996-.933 49.398-.115l.132.16h.246l.202.101.417-.146c24.876-8.74 49.45-.09 49.695-.002l1.394.503.001-62.887 6.54-.001z"/></svg>