<svg width="24" height="20" xmlns="http://www.w3.org/2000/svg"><path d="M23.38 2.973c-.86.382-1.784.64-2.755.755a4.805 4.805 0 002.11-2.654c-.928.55-1.954.95-3.047 1.165a4.797 4.797 0 00-8.173 4.375 13.62 13.62 0 01-9.887-5.012 4.772 4.772 0 00-.65 2.412c0 1.664.847 3.132 2.134 3.992a4.783 4.783 0 01-2.172-.6v.06a4.8 4.8 0 003.847 4.704 4.823 4.823 0 01-2.166.081 4.802 4.802 0 004.48 3.332 9.623 9.623 0 01-5.957 2.053c-.387 0-.769-.023-1.144-.067a13.574 13.574 0 007.353 2.155C16.176 19.724 21 12.415 21 6.077c0-.208-.004-.416-.013-.622a9.715 9.715 0 002.393-2.482z" fill="#FFF"/></svg>