<svg width="101" height="92" xmlns="http://www.w3.org/2000/svg"><path d="M17.863 2.085h7.189V.577a.577.577 0 011.155 0v1.508h6.163V.577a.577.577 0 011.155 0v1.508h6.165V.577a.577.577 0 011.155 0v1.508h6.163V.577a.577.577 0 011.156 0v1.508h6.163V.577a.577.577 0 011.155 0v1.508h6.164V.577a.577.577 0 011.155 0v1.508h6.164V.577a.577.577 0 011.155 0v1.508h6.164V.577a.577.577 0 011.155 0v1.508h7.189c.637 0 1.155.517 1.155 1.153v8.535c.075.153.118.325.118.507l-.123 78.467A1.155 1.155 0 0184.628 92H17.864a1.155 1.155 0 01-1.155-1.154v-6.088H1.155A1.155 1.155 0 010 83.604v-13.32c0-.637.517-1.154 1.155-1.154h15.561l.119-56.258a1.145 1.145 0 01-.126-.524v-9.11c0-.637.518-1.153 1.155-1.153zm40.398 33.75v12.7a.576.576 0 01-.576.576H44.983a12.676 12.676 0 003.711 8.414 12.677 12.677 0 008.99 3.724c3.51 0 6.69-1.424 8.99-3.725 2.3-2.3 3.724-5.479 3.724-8.989 0-3.511-1.423-6.69-3.724-8.99a12.672 12.672 0 00-8.413-3.71zM43.8 47.778a13.877 13.877 0 014.056-9.071 13.875 13.875 0 019.071-4.056v-11.27H32.53v24.397h11.272zm13.381.254V35.834a12.749 12.749 0 00-8.465 3.734 12.75 12.75 0 00-3.734 8.465h12.2zm7.234 35.422l7.216-13.416a.763.763 0 011.346 0l7.24 13.46a.767.767 0 01-.673 1.13h-14.48a.767.767 0 01-.649-1.174zm7.887-11.532L66.33 83.104h11.945l-5.972-11.182zm22.672-50.524v-3.54a.58.58 0 01.582-.577.58.58 0 01.582.577v3.54h.847c.526 0 .972.348 1.115.825l2.686 7.039c.069.147.107.312.107.485v40.614l.001.033v2.73a3.856 3.856 0 01-1.153 2.741 3.909 3.909 0 01-2.76 1.14h-2.85a3.912 3.912 0 01-2.759-1.14 3.857 3.857 0 01-1.152-2.742V29.75c0-.173.04-.338.108-.485l2.715-7.115a1.162 1.162 0 011.086-.746V21.4h.847-.002zm-2.212 50.27v1.525c0 .421.172.802.448 1.076.279.276.665.448 1.09.448h2.769c.425 0 .81-.172 1.09-.448a1.51 1.51 0 00.448-1.076V71.67h-5.846.001zm5.336-42.95l-1.806-4.83h-1.216l-1.806 4.83h4.828zm.509 40.662V31.006h-5.846V69.38h5.846zm-44.73 7.127c0-.427.342-.773.763-.773.42 0 .762.346.762.773v3.282a.768.768 0 01-.762.774.768.768 0 01-.763-.774v-3.282zm-48.541 0c0-.427.342-.773.762-.773.421 0 .763.346.763.773v3.282a.768.768 0 01-.763.774.768.768 0 01-.762-.774v-3.282zm9.657 0c0-.427.342-.773.763-.773.42 0 .762.346.762.773v3.282a.768.768 0 01-.762.774.768.768 0 01-.763-.774v-3.282zm9.912 0c0-.427.342-.773.763-.773.42 0 .762.346.762.773v3.282a.768.768 0 01-.762.774.768.768 0 01-.763-.774v-3.282zm9.658 0c0-.427.341-.773.762-.773s.762.346.762.773v3.282a.768.768 0 01-.762.774.768.768 0 01-.762-.774v-3.282zm9.657 0c0-.427.342-.773.763-.773.42 0 .762.346.762.773v3.282a.768.768 0 01-.762.774.768.768 0 01-.763-.774v-3.282zm-33.8 1.603c0-.329.284-.595.635-.595.351 0 .636.266.636.595v1.86c0 .328-.285.595-.636.595-.35 0-.635-.267-.635-.596V78.11zm9.657 0c0-.329.285-.595.636-.595.35 0 .635.266.635.595v1.86c0 .328-.285.595-.635.595-.351 0-.636-.267-.636-.596V78.11zm9.658 0c0-.329.284-.595.635-.595.35 0 .636.266.636.595v1.86c0 .328-.285.595-.636.595-.35 0-.635-.267-.635-.596V78.11zm9.657 0c0-.329.285-.595.636-.595.35 0 .635.266.635.595v1.86c0 .328-.285.595-.635.595-.351 0-.636-.267-.636-.596V78.11zm9.658 0c0-.329.284-.595.635-.595.35 0 .635.266.635.595v1.86c0 .328-.284.595-.635.595-.35 0-.635-.267-.635-.596V78.11zm-30.973 4.234l.02-.001h40.356V71.415H2.541v10.929h15.536zm.988 2.431v4.939h64.43l.118-76.243H19.178l-.117 55.666H59.4c.638 0 1.155.517 1.155 1.154v13.33c0 .637-.517 1.154-1.154 1.154h-40.34.003zm39.274-49.92a13.796 13.796 0 019.02 4.034 13.801 13.801 0 014.055 9.789c0 3.822-1.55 7.283-4.055 9.787a13.798 13.798 0 01-9.787 4.055c-3.823 0-7.283-1.55-9.789-4.054a13.8 13.8 0 01-4.034-9.022H31.772a.767.767 0 01-.766-.767v-25.8c0-.423.343-.766.766-.766h25.799c.423 0 .767.343.767.766v11.977zM26.486 4.32v2.06a.58.58 0 01-.576.582.58.58 0 01-.576-.582V4.32h-6.02v6.862h64.3V4.32h-6.02v2.06a.58.58 0 01-.576.582.58.58 0 01-.577-.582V4.32h-6.148v2.06a.58.58 0 01-.576.582.58.58 0 01-.576-.582V4.32h-6.15v2.06a.58.58 0 01-.575.582.58.58 0 01-.577-.582V4.32H55.69v2.06a.58.58 0 01-.576.582.58.58 0 01-.576-.582V4.32H48.39v2.06a.58.58 0 01-.576.582.58.58 0 01-.576-.582V4.32h-6.15v2.06a.58.58 0 01-.575.582.58.58 0 01-.576-.582V4.32h-6.15v2.06a.58.58 0 01-.576.582.58.58 0 01-.576-.582V4.32h-6.148z"/></svg>