<svg width="102" height="97" xmlns="http://www.w3.org/2000/svg"><path d="M43.327 0a1.418 1.418 0 010 2.834H7.377c-2.504 0-4.541 2.029-4.541 4.524V55.86l11.134.001v-40.34c0-.783.636-1.418 1.417-1.418h21.577a1.418 1.418 0 010 2.833h-20.16V55.86h26.523a1.416 1.416 0 110 2.834H2.834v14.318h30.278c.009 0 .015-.003.021-.003l.022.003h35.689c.008 0 .015-.003.022-.003l.021.003h30.28V57.287c0-.784.634-1.417 1.417-1.417A1.412 1.412 0 01102 57.285v17.142c0 .783-.633 1.417-1.417 1.417h-30.3v11.358c0 .955.235 1.902.679 2.738 1.312 2.577 4.295 4.226 7.612 4.226a1.416 1.416 0 110 2.834H23.423a1.416 1.416 0 110-2.834c3.32 0 6.303-1.65 7.602-4.203.03-.058.063-.113.098-.164a6.063 6.063 0 00.594-2.597V75.844h-30.3A1.416 1.416 0 010 74.427V7.357C0 3.301 3.31.001 7.375.001zm-10.22 92.021h-.03a9.867 9.867 0 01-1.861 2.146h39.576a9.964 9.964 0 01-1.862-2.146h-.03c-.01 0-.018.006-.028.006l-.029-.006H33.164c-.01 0-.018.006-.028.006l-.029-.006zm34.344-16.176H34.553V89.19H67.45V75.845zM75 0c14.887 0 27 12.111 27 27 0 14.888-12.113 27-27 27-14.886 0-27-12.111-27-27C48 12.112 60.113 0 75 0zm0 2.83C61.675 2.83 50.832 13.674 50.831 27c0 13.326 10.842 24.168 24.168 24.168 13.327 0 24.168-10.842 24.168-24.168 0-13.327-10.84-24.17-24.167-24.17zM63.317 17.409a1.417 1.417 0 011.544-.298c.121.05.223.135.326.216.04.031.09.047.126.083l4.833 4.795a1.39 1.39 0 010 1.98c-.276.273-.637.41-.998.41-.362 0-.723-.137-.999-.41L65.73 21.78v12.436c0 2.196 1.8 3.982 4.011 3.982h10.847c.78 0 1.412.628 1.412 1.4 0 .774-.631 1.401-1.412 1.401H69.741c-3.767 0-6.833-3.043-6.833-6.781V21.775L60.41 24.25a1.415 1.415 0 01-1.997-.002 1.39 1.39 0 010-1.98zM80.303 12c3.783 0 6.861 3.043 6.861 6.782v12.434l2.417-2.39a1.426 1.426 0 012.003 0 1.387 1.387 0 010 1.98l-4.825 4.77a1.404 1.404 0 01-.476.318c-.136.054-.28.073-.424.084-.037.002-.072.022-.111.022-.19 0-.375-.038-.549-.11-.077-.03-.137-.09-.208-.136-.085-.054-.175-.091-.25-.164l-4.897-4.842a1.387 1.387 0 010-1.98 1.426 1.426 0 012.003 0l2.486 2.456V18.782c0-2.196-1.808-3.982-4.029-3.982H69.418A1.409 1.409 0 0168 13.4c0-.773.633-1.4 1.417-1.4z"/></svg>