<svg width="27" height="14" xmlns="http://www.w3.org/2000/svg"><path d="M13.55 0c4.904 0 9.647 2.322 13.292 6.575a.653.653 0 010 .85C23.197 11.677 18.486 14 13.55 14 8.517 14 3.775 11.677.194 7.458A.65.65 0 010 7c0-.164.064-.327.161-.458C3.743 2.322 8.485 0 13.551 0zm-.064 1.44C10.453 1.44 8 3.924 8 7c0 3.075 2.452 5.56 5.485 5.56 3.032 0 5.484-2.485 5.484-5.56 0-3.075-2.452-5.56-5.484-5.56zm-4.743.654C6.065 3.009 3.581 4.678 1.484 7c2.097 2.323 4.581 3.99 7.26 4.907A6.86 6.86 0 016.71 7a6.86 6.86 0 012.032-4.906zm9.485 0A6.86 6.86 0 0120.261 7a6.86 6.86 0 01-2.033 4.907c2.646-.884 5.13-2.552 7.26-4.907-2.13-2.322-4.614-3.99-7.26-4.906zM13.5 3c.573 0 1.114.127 1.59.382a.927.927 0 00-.635.89c0 .542.413.955.954.955.446 0 .859-.318.923-.763.413.572.668 1.272.668 2.036 0 1.94-1.56 3.5-3.5 3.5A3.49 3.49 0 0110 6.5C10 4.56 11.56 3 13.5 3z"/></svg>