<svg width="21" height="22" xmlns="http://www.w3.org/2000/svg"><path d="M14.86.69c1.78 0 3.346.593 4.446 1.736C20.407 3.526 21 5.05 21 6.829v8.722c0 1.82-.593 3.387-1.736 4.488-1.1 1.058-2.625 1.651-4.445 1.651H6.18c-1.735 0-3.26-.55-4.403-1.651C.593 18.896 0 17.329 0 15.509v-8.68C0 3.146 2.456.69 6.14.69zm.043 1.948H6.181c-1.27 0-2.37.38-3.09 1.1-.762.762-1.143 1.82-1.143 3.091v8.68c0 1.312.38 2.37 1.143 3.133.762.72 1.82 1.1 3.09 1.1h8.638c1.27 0 2.328-.38 3.09-1.1.762-.72 1.228-1.779 1.228-3.091V6.829c0-1.228-.423-2.286-1.143-3.048-.762-.762-1.82-1.143-3.09-1.143zM10.5 5.69c3.008 0 5.5 2.492 5.5 5.5s-2.45 5.5-5.5 5.5S5 14.24 5 11.19s2.492-5.5 5.5-5.5zm0 1.977a3.54 3.54 0 00-3.523 3.523 3.54 3.54 0 003.523 3.523 3.54 3.54 0 003.523-3.523A3.54 3.54 0 0010.5 7.667zM16 4.69a1 1 0 110 2 1 1 0 010-2z" fill="#FFF"/></svg>