<svg width="112" height="112" xmlns="http://www.w3.org/2000/svg"><path d="M56 0c4.98 0 9.032 4.052 9.032 9.032 0 4.363-3.109 8.01-7.226 8.85v11.021h21.678c.329 0 .64.063.965.098l8.895-8.895c-2.317-3.507-1.934-8.283 1.147-11.368 3.519-3.52 9.25-3.522 12.773 0 3.52 3.521 3.52 9.25 0 12.773a9.001 9.001 0 01-6.387 2.641 9.015 9.015 0 01-4.981-1.491l-7.64 7.64c2.547 1.596 4.26 4.41 4.26 7.634v16.259h5.602c.84-4.117 4.49-7.226 8.85-7.226 4.98 0 9.032 4.051 9.032 9.032 0 4.98-4.052 9.032-9.032 9.032-4.363 0-8.01-3.109-8.85-7.226h-5.602v9.033c0 4.98-4.051 9.032-9.032 9.032h-1.059l13.469 13.47c3.504-2.315 8.282-1.936 11.368 1.15 3.519 3.52 3.519 9.25 0 12.773a9.001 9.001 0 01-6.388 2.64 9.001 9.001 0 01-6.386-2.64c-3.081-3.086-3.463-7.863-1.147-11.368L73.316 75.871H66.15l-7.226 14.452h-1.116v3.795c4.117.84 7.225 4.49 7.225 8.85 0 4.98-4.051 9.032-9.032 9.032-4.98 0-9.032-4.052-9.032-9.032 0-4.363 3.109-8.01 7.226-8.85v-3.795h-1.117L45.85 75.87h-7.168L22.66 91.894c2.318 3.507 1.935 8.283-1.147 11.368a9.001 9.001 0 01-6.388 2.641 9.001 9.001 0 01-6.385-2.641c-3.52-3.521-3.52-9.25 0-12.773 3.083-3.084 7.863-3.467 11.368-1.15l13.468-13.468h-1.059c-4.98 0-9.032-4.052-9.032-9.032v-9.033h-5.602c-.84 4.117-4.49 7.226-8.85 7.226C4.052 65.032 0 60.981 0 56c0-4.98 4.052-9.032 9.032-9.032 4.36 0 8.01 3.109 8.85 7.226h5.602V37.935c0-3.224 1.713-6.038 4.263-7.635l-7.64-7.64a9.038 9.038 0 01-4.982 1.492 9.001 9.001 0 01-6.386-2.64c-3.52-3.522-3.52-9.252 0-12.774 3.521-3.52 9.253-3.522 12.774 0 3.081 3.085 3.463 7.863 1.146 11.368L31.555 29c.32-.035.632-.098.96-.098h21.678v-11.02c-4.116-.841-7.225-4.49-7.225-8.85C46.968 4.051 51.019 0 56 0zm0 97.55a5.426 5.426 0 00-5.42 5.418 5.426 5.426 0 005.42 5.42 5.426 5.426 0 005.42-5.42A5.426 5.426 0 0056 97.55zm-40.875-6.09a5.412 5.412 0 00-3.833 1.584 5.428 5.428 0 000 7.665 5.428 5.428 0 007.664 0 5.429 5.429 0 000-7.665 5.402 5.402 0 00-3.831-1.584zm85.582 1.584a5.43 5.43 0 00-7.664 0 5.428 5.428 0 000 7.664 5.428 5.428 0 007.664 0 5.428 5.428 0 000-7.664zM79.484 32.516H32.516a5.426 5.426 0 00-5.419 5.42v28.903a5.426 5.426 0 005.42 5.419h15.568L55.31 86.71h1.38l7.225-14.452h15.568a5.426 5.426 0 005.42-5.42V37.936a5.426 5.426 0 00-5.42-5.419zM82 65v4h-4v-4h4zm-7 0v4H31v-4h44zm7-7v4H31v-4h51zM9.032 50.582a5.426 5.426 0 00-5.419 5.42 5.426 5.426 0 005.42 5.42 5.426 5.426 0 005.419-5.42 5.426 5.426 0 00-5.42-5.42zm93.936-.001A5.426 5.426 0 0097.548 56a5.426 5.426 0 005.42 5.42 5.426 5.426 0 005.42-5.42 5.426 5.426 0 00-5.42-5.42zM82 50v4H31v-4h51zm-1-7v4H45v-4h36zm-39 0v4H31v-4h11zm40-7v4H31v-4h51zM15.125 9.71a5.412 5.412 0 00-3.833 1.584 5.428 5.428 0 000 7.664 5.428 5.428 0 007.664 0 5.428 5.428 0 000-7.664 5.402 5.402 0 00-3.831-1.584zm85.582 1.583a5.428 5.428 0 00-7.664 0 5.429 5.429 0 000 7.664 5.43 5.43 0 007.664 0 5.428 5.428 0 000-7.664zM56 3.613a5.426 5.426 0 00-5.42 5.42 5.426 5.426 0 005.42 5.42 5.426 5.426 0 005.42-5.42A5.426 5.426 0 0056 3.613z"/></svg>